<?xml version="1.0" encoding="utf-8"?>
<!-- Generator: Adobe Illustrator 17.0.0, SVG Export Plug-In . SVG Version: 6.00 Build 0)  -->
<!DOCTYPE svg PUBLIC "-//W3C//DTD SVG 1.1//EN" "http://www.w3.org/Graphics/SVG/1.1/DTD/svg11.dtd">
<svg version="1.1" id="Layer_1" xmlns="http://www.w3.org/2000/svg" xmlns:xlink="http://www.w3.org/1999/xlink" x="0px" y="0px"
	 width="1176.464px" height="232.927px" viewBox="0 0 1176.464 232.927" enable-background="new 0 0 1176.464 232.927"
	 xml:space="preserve">
<g>
	<path fill="#ACACAF" d="M719.307,139.826h29.516c2.145-6.751-0.392-7.96-12.188-7.96
		C723.431,131.866,721.473,133.075,719.307,139.826z M695.782,149.983l1.724-5.43c6.895-21.323,18.497-25.931,33.296-25.931h6.037
		l45.539-0.073l3.949-12.305h20.245l-4.108,12.815h31.445l-5.118,15.665h-31.434l-6.978,21.624c-1.352,4.17,1.328,5.09,6.172,5.09
		c6.514,0,8.807-1.59,10.497-6.73l1.181-3.779h17.748l-2.207,6.854c-3.501,10.725-12.902,18.86-29.006,18.86h-7.999
		c-12.444,0-21.886-4.091-16.87-19.643l7.225-22.276h-7.729c-0.301,2.355-0.947,5.101-1.957,8.188l-3.075,9.446h-49.16l-1.112,3.496
		c-1.872,5.911,1.59,7.545,10.01,7.545h6.229c10.951,0,12.455-3.057,13.551-6.399h18.984l-0.76,2.439
		c-4.586,14.123-17.623,17.203-32.269,17.203h-15.166C701.257,176.644,687.997,173.99,695.782,149.983z M479.211,157.002
		l7.223-22.276h-10.105l4.886-15.269h10.134l4.256-13.212h20.313l-4.295,13.212l31.399,0.04l-4.919,15.229h-31.423l-6.996,21.624
		c-1.321,4.17,1.327,5.09,6.202,5.09c6.514,0,8.795-1.59,10.497-6.73l1.208-3.779h17.703l-2.191,6.854
		c-3.46,10.725-12.828,18.86-29.011,18.86h-8.012C483.654,176.644,474.224,172.531,479.211,157.002z M567.958,119.457l-18.19,56.338
		h-20.245l18.179-56.338H567.958z M575.629,95.85l-5.333,16.6h-20.324l5.39-16.6H575.629z M560.377,149.943l1.714-5.39
		c6.923-21.323,18.531-25.931,33.295-25.931h22.776c14.933,0,22.286,5.708,18.105,18.656l-1.641,5.056h-19.608
		c1.843-5.765-0.347-7.858-9.198-7.858h-7.757c-8.477,0-13.232,2.474-15.228,8.652l-2.474,7.467
		c-2.326,7.314,1.384,9.516,7.728,9.516l10.293-0.046c5.697,0.046,11.33-1.288,13.005-6.502l0.442-1.316h19.598l-1.6,4.988
		c-4.88,15.086-18.327,19.409-29.892,19.409h-20.732C565.858,176.644,552.581,173.99,560.377,149.943z M625.481,175.795
		l25.782-79.944h20.296l-13.635,42.188h3.773l23.791-18.542h26.622l-35.554,26.361l20.608,29.936H671.36l-14.389-22.526h-3.983
		l-7.291,22.526H625.481z"/>
	<path fill="#DF9E41" d="M334.212,147.425c0-39.148,29.959-70.966,67.209-71.657c-9.232,17.314-16.245,38.376-16.881,62.675
		c-0.158,5.793,0.675,12.449,2.088,18.866c2.679,9.811,9.169,31.501,9.169,31.501s2.452-9.247,4.154-13.095
		c30.934-70.283,92.032-97.923,92.032-97.923l-39.86-58.265c0,0-16.795,9.538-33.102,29.705
		c18.469-25.626,37.557-39.928,37.557-39.928L510.844,86.4c0,0-67.771,21.857-100.532,84.083
		c15.297-24.568,35.554-41.386,54.715-52.808c3.921,9.095,6.145,19.115,6.145,29.749c0,39.598-30.686,71.696-68.451,71.696
		C364.863,219.121,334.212,187.022,334.212,147.425z M510.844,74.223c0-5.861,4.596-10.349,9.974-10.349
		c5.426,0,9.948,4.487,9.948,10.349c0,5.97-4.522,10.424-9.948,10.424C515.394,84.647,510.844,80.193,510.844,74.223z
		 M512.614,74.223c0,5.047,3.591,8.875,8.203,8.875c4.586,0,8.16-3.828,8.16-8.875c-0.028-4.965-3.574-8.749-8.16-8.749
		C516.205,65.474,512.614,69.259,512.614,74.223z M516.982,80.324V68.264h4.443c2.797,0,4.067,1.123,4.067,3.401
		c0,2.147-1.345,3.092-3.063,3.308l3.291,5.352h-1.93l-3.12-5.207h-1.93v5.207H516.982z M518.741,69.747v3.85h1.918
		c1.555,0,3.042-0.116,3.042-1.966c0-1.617-1.328-1.884-2.537-1.884H518.741z"/>
	<path fill="#919294" d="M66.921,144.554l-1.759,5.491c-2.724,8.534,0.868,10.396,8.885,10.396h10.61
		c9.742,0,11.791-3.535,13.868-9.845l2.105-6.559c2.105-6.304,2.23-9.845-7.473-9.845H82.525
		C74.508,134.192,69.69,136.058,66.921,144.554z M30.392,195.034l24.535-75.844h19.581l-2.712,8.397
		c4.369-5.005,10.378-9.271,22.174-9.271h5.867c25.618,0,25.664,9.601,20.978,23.928l-3.257,10.139
		c-4.642,14.322-10.9,23.984-36.507,23.984h-4.108c-11.519,0-14.98-1.685-16.625-10.655l-9.686,29.322H30.392z M203.063,119.19
		l-18.236,56.24h-20.161l2.872-9.026c-6.27,7.824-14.072,9.963-24.944,9.963c-12.545,0-29.856-0.572-21.97-24.847l10.395-32.33
		l20.274-0.045l-10.487,32.375c-1.77,5.521,1.572,8.308,10.395,8.308h4.687c8.664-0.08,15.149-4.272,17.771-12.302l9.158-28.336
		H203.063z M187.664,175.431l18.18-56.24h20.267l-2.939,9.01c6.333-7.829,14.072-9.884,24.943-9.884
		c8.994,0,36.529-0.028,36.529-0.028l3.983-12.323h20.223l-3.995,12.323h31.4l-5.186,16.144h-31.433l-6.945,21.6
		c-1.413,4.183,1.271,5.102,6.083,5.102c6.587,0,8.88-1.601,10.553-6.74l1.227-3.797h17.702l-2.201,6.843
		c-3.478,10.741-12.834,18.929-28.994,18.929h-7.989c-12.483,0-21.925-4.091-16.88-19.671l7.207-22.265h-7.411
		c-0.199,2.474-0.777,5.361-1.872,8.697l-10.423,32.302h-20.257l10.464-32.302c1.776-5.515-1.583-8.312-10.419-8.312h-4.63
		c-8.681,0-15.166,4.222-17.793,12.278l-9.169,28.336H187.664z"/>
	<path fill="#DF9E41" d="M1015.182,175.545l18.639-56.514h19.349c0,0,0.232,0-3.398,11.054c3.745-8.126,11.961-11.962,21.97-11.962
		h7.728c9.602,0,14.747,4.324,15.683,13.21c6.708-10.27,12.024-13.21,23.582-13.21h6.264c18.566,0,22.095,9.443,16.778,25.658
		l-10.469,31.764h-20.358l10.038-30.367c2.554-7.763,1.503-10.423-10.378-10.423c-9.748,0-14.464,2.195-16.926,9.64l-10.298,31.15
		h-20.325l10.565-32.018c2.326-7.007,0.477-8.771-11.835-8.801c-8.705,0.029-13.607,2.225-16.462,11.014l-9.776,29.806H1015.182z
		 M831.47,175.545l7.466-22.634h22.242l-7.45,22.634H831.47z M872.76,149.626l1.814-5.452c7.008-21.409,18.753-26.051,33.562-26.051
		h22.866c15.047,0,22.4,5.731,18.106,18.713l-1.657,5.119h-19.74c1.936-5.732-0.255-7.876-9.15-7.876h-7.859
		c-8.442,0-13.261,2.44-15.32,8.692l-2.485,7.496c-2.433,7.324,1.317,9.561,7.661,9.561h10.377c5.736,0,11.331-1.345,13.078-6.599
		l0.443-1.277h19.666l-1.629,4.96c-4.977,15.183-18.481,19.518-30.156,19.473l-20.723,0.045
		C878.121,176.385,864.832,173.797,872.76,149.626z M944.495,154.052l4.414-13.55c6.169-18.594,19.429-22.379,29.783-22.379h30.373
		c10.395,0,21.096,3.785,14.979,22.379l-4.427,13.55c-6.127,18.582-19.33,22.333-29.708,22.333h-30.436
		C949.154,176.43,938.355,172.634,944.495,154.052z M967.906,144.667l-1.702,5.276c-2.667,8.086,1.083,10.497,10.384,10.497h4.901
		c13.147,0.079,16.291-1.748,18.741-9.248l2.57-7.824c2.452-7.519,0.5-9.289-12.607-9.289h-4.88
		C975.985,134.079,970.59,136.519,967.906,144.667z"/>
</g>
</svg>
